<svg width="23" height="22" viewBox="0 0 23 22" fill="none" xmlns="http://www.w3.org/2000/svg">
<mask id="mask0_216_1015" style="mask-type:alpha" maskUnits="userSpaceOnUse" x="0" y="0" width="23" height="22">
<rect x="0.629883" y="0.292053" width="21.573" height="21.573" fill="#D9D9D9"/>
</mask>
<g mask="url(#mask0_216_1015)">
<path d="M3.32617 19.1685V7.48309L15.0116 2.98871V11.0786H15.9104C15.9104 10.5842 16.0865 10.161 16.4385 9.80893C16.7906 9.45687 17.2138 9.28084 17.7082 9.28084C18.2026 9.28084 18.6258 9.45687 18.9779 9.80893C19.3299 10.161 19.5059 10.5842 19.5059 11.0786V19.1685H3.32617ZM5.12392 17.3707H8.71943V11.0786H13.2138V5.59545L5.12392 8.71905V17.3707ZM10.5172 17.3707H13.2138V14.6741H15.0116V17.3707H17.7082V12.8763H10.5172V17.3707Z" fill="#D61532"/>
</g>
</svg>
